<svg width="134" height="40" viewBox="0 0 134 40" fill="none" xmlns="http://www.w3.org/2000/svg">
<g clip-path="url(#clip0_5573_55902)">
<path d="M32.6431 23.1655C31.9731 24.96 30.3633 26.5077 28.3812 26.5077C24.5636 26.5077 23.1282 21.8139 23.1282 17.9827C23.1282 15.0603 24.3891 11.5728 27.4134 11.5728C29.7654 11.5728 31.3543 14.027 32.4686 16.1398L33.4085 15.9183L32.1941 10.5879C31.5265 10.8831 30.782 11.1046 30.3842 11.1046C30.0376 11.1046 29.542 10.9823 28.9721 10.8347C28.43 10.6871 27.8321 10.5879 27.1645 10.5879C22.5047 10.5879 20.1016 15.7477 20.1016 19.994C20.1016 24.6625 22.6769 28.5191 27.1133 28.5191C30.1353 28.5191 32.464 26.3578 33.455 23.4585" fill="#307371"/>
<path d="M47.9875 11.9396L49.3507 11.7436V10.957H43.6022V11.7436L44.9655 11.9396V18.6194H37.977V11.9396L39.3403 11.7436V10.957H33.5918V11.7436L34.9551 11.9396V27.1698L33.5918 27.3659V28.1524H39.3403V27.3659L37.977 27.1698V19.6527H44.9655V27.1698L43.6022 27.3659V28.1524H49.3507V27.3659L47.9875 27.1698" fill="#307371"/>
<path d="M59.7202 10.5879C59.1758 10.9316 58.5314 11.1046 58.0103 11.1046C57.5403 11.1046 57.1216 10.9823 56.6493 10.8347C56.1794 10.6871 55.6583 10.5879 54.9162 10.5879C52.0408 10.5879 50.1587 12.7976 50.1587 15.0834C50.1587 21.9361 59.2502 19.9225 59.2502 24.5656C59.2502 26.2102 57.7893 27.5388 56.1282 27.5388C53.3528 27.5388 51.4452 25.1792 50.3309 22.7965L49.3887 22.921L50.3309 28.1546C50.852 27.9563 51.3963 27.7371 51.9175 27.7371C52.7596 27.7371 54.1229 28.5237 55.9561 28.5237C58.9548 28.5237 61.4068 26.4109 61.4068 23.4146C61.4068 16.6334 52.1408 18.9422 52.1408 14.1031C52.1408 12.5784 53.2551 11.5728 55.0395 11.5728C57.4682 11.5728 58.8803 14.08 59.7713 15.9183L60.6391 15.6992" fill="#307371"/>
<path d="M11.8235 13.9868V10.324C11.8235 9.92954 12.1469 9.61124 12.5424 9.61124H14.5966C14.9921 9.61124 15.3154 9.92954 15.3154 10.324V13.9868C15.3154 14.3812 14.9944 14.6995 14.5966 14.6995H12.5424C12.1469 14.6995 11.8235 14.3812 11.8235 13.9868ZM12.5424 9C11.8072 9 11.207 9.59278 11.207 10.324V13.9868C11.207 14.7156 11.8072 15.3084 12.5424 15.3084H14.5966C15.3294 15.3084 15.9296 14.7156 15.9296 13.9868V10.324C15.9296 9.59278 15.3317 9 14.5966 9" fill="#307371"/>
<path d="M11.8235 21.1268V17.4617C11.8235 17.0695 12.1469 16.7489 12.5424 16.7489H14.5966C14.9921 16.7489 15.3154 17.0719 15.3154 17.4617V21.1268C15.3154 21.5212 14.9944 21.8395 14.5966 21.8395H12.5424C12.1469 21.8395 11.8235 21.5212 11.8235 21.1268ZM12.5424 16.14C11.8072 16.14 11.207 16.7351 11.207 17.464V21.1291C11.207 21.8603 11.8072 22.453 12.5424 22.453H14.5966C15.3294 22.453 15.9296 21.8603 15.9296 21.1291V17.4617C15.9296 16.7328 15.3317 16.1377 14.5966 16.1377" fill="#307371"/>
<path d="M11.8235 28.2713V24.6062C11.8235 24.2141 12.1469 23.8935 12.5424 23.8935H14.5966C14.9921 23.8935 15.3154 24.2141 15.3154 24.6062V28.2713C15.3154 28.6634 14.9944 28.9817 14.5966 28.9817H12.5424C12.1469 28.9817 11.8235 28.6611 11.8235 28.2713ZM12.5424 23.2822C11.8072 23.2822 11.207 23.875 11.207 24.6062V28.2713C11.207 29.0002 11.8072 29.593 12.5424 29.593H14.5966C15.3294 29.593 15.9296 29.0002 15.9296 28.2713V24.6062C15.9296 23.8773 15.3317 23.2822 14.5966 23.2822" fill="#307371"/>
<path d="M6.23135 21.1268V17.4617C6.23135 17.0695 6.55472 16.7489 6.95021 16.7489H9.00208C9.39757 16.7489 9.72093 17.0719 9.72093 17.4617V21.1268C9.72093 21.5212 9.39757 21.8395 9.00208 21.8395H6.95021C6.55472 21.8395 6.23135 21.5212 6.23135 21.1268ZM6.95021 16.14C6.21507 16.14 5.61719 16.7351 5.61719 17.464V21.1291C5.61719 21.8603 6.21507 22.453 6.95021 22.453H9.00208C9.73955 22.453 10.3374 21.8603 10.3374 21.1291V17.4617C10.3374 16.7328 9.73955 16.1377 9.00208 16.1377" fill="#307371"/>
<path d="M6.23135 28.2713V24.6062C6.23135 24.2141 6.55472 23.8935 6.95021 23.8935H9.00208C9.39757 23.8935 9.72093 24.2141 9.72093 24.6062V28.2713C9.72093 28.6634 9.39757 28.9817 9.00208 28.9817H6.95021C6.55472 28.9817 6.23135 28.6611 6.23135 28.2713ZM6.95021 23.2822C6.21507 23.2822 5.61719 23.875 5.61719 24.6062V28.2713C5.61719 29.0002 6.21507 29.593 6.95021 29.593H9.00208C9.73955 29.593 10.3374 29.0002 10.3374 28.2713V24.6062C10.3374 23.8773 9.73955 23.2822 9.00208 23.2822" fill="#307371"/>
<path d="M0.614166 28.2713V24.6062C0.614166 24.2141 0.937534 23.8935 1.33302 23.8935H3.38722C3.78271 23.8935 4.10375 24.2141 4.10375 24.6062V28.2713C4.10375 28.6634 3.78271 28.9817 3.38722 28.9817H1.33302C0.939861 28.9817 0.614166 28.6611 0.614166 28.2713ZM1.33302 23.2822C0.597882 23.2822 0 23.875 0 24.6062V28.2713C0 29.0002 0.600208 29.593 1.33302 29.593H3.38722C4.12236 29.593 4.72024 29.0002 4.72024 28.2713V24.6062C4.72024 23.8773 4.12236 23.2822 3.38722 23.2822" fill="#307371"/>
<path d="M72.3811 12.3539C72.1089 11.2121 71.3156 10.3402 69.964 10.3402C69.415 10.3402 68.7799 10.5571 68.3169 11.0045C67.8889 11.4174 67.405 12.114 67.405 13.6824C67.405 15.989 68.7124 16.937 70.0966 16.937C71.4459 16.937 72.2369 16.1643 72.5789 15.8368L72.7766 16.0328C72.765 16.0536 71.8205 17.4167 69.8011 17.4167C68.0331 17.4167 66.1348 16.3719 66.1348 13.6594C66.1348 11.2213 67.9796 9.9043 69.8686 9.9043C70.848 9.9043 71.5599 10.2618 71.8018 10.2618C71.8553 10.2618 72.2159 10.2618 72.3043 9.9043H72.5347L72.6324 12.3539" fill="#307371"/>
<path d="M77.3228 15.0995C77.3228 13.7502 76.7645 12.5646 75.7525 12.5646C75.0616 12.5646 74.4567 13.1297 74.4567 14.2622C74.4567 15.0695 74.7103 17.0693 76.027 17.0693C76.5877 17.0693 77.3228 16.6587 77.3228 15.0995ZM78.3115 14.7858C78.3115 15.863 77.5438 17.3761 75.8758 17.3761C74.459 17.3761 73.4727 16.2551 73.4727 14.7858C73.4727 13.4457 74.373 12.2578 75.8432 12.2578C77.281 12.2578 78.3115 13.2081 78.3115 14.7858Z" fill="#307371"/>
<path d="M79.5852 13.586C79.5852 12.9033 79.3782 12.8918 79.2014 12.8918C79.0478 12.8918 78.9385 12.9148 78.8501 12.9356V12.7511C79.3666 12.6104 79.883 12.4466 80.3878 12.2598L80.4623 12.2828V13.0994C81.109 12.6104 81.5603 12.2598 82.1536 12.2598C82.8678 12.2598 83.2097 12.7188 83.3284 13.1755C83.561 12.9148 84.2287 12.2598 85.0964 12.2598C86.2387 12.2598 86.3922 13.3946 86.3922 14.1996V16.4416C86.3922 16.6791 86.3806 17.0067 86.8645 17.0828L87.1506 17.1058V17.2673H84.7452V17.1058C85.2965 17.0389 85.471 17.0159 85.471 16.3216V14.0243C85.471 13.4684 85.4594 12.8272 84.6684 12.8272C84.0659 12.8272 83.6913 13.1201 83.4494 13.4892V16.2317C83.4494 17.0597 83.789 17.092 84.238 17.1035V17.265H81.779V17.1035C82.2722 17.0689 82.5235 17.0366 82.5235 16.3308V13.9689C82.5235 13.2516 82.3374 12.8272 81.7674 12.8272C81.009 12.8272 80.5042 13.413 80.5042 13.4684V16.5384C80.5042 17.0689 80.8671 17.092 81.2486 17.1035V17.265H78.8105V17.1035C79.2502 17.092 79.5783 17.0689 79.5783 16.3401" fill="#307371"/>
<path d="M88.1294 13.586C88.1294 12.9033 87.92 12.8918 87.7432 12.8918C87.5897 12.8918 87.4803 12.9148 87.3919 12.9356V12.7511C87.9084 12.6104 88.4249 12.4466 88.9297 12.2598L89.0065 12.2828V13.0994C89.6532 12.6104 90.1022 12.2598 90.6977 12.2598C91.4119 12.2598 91.7516 12.7188 91.8749 13.1755C92.1052 12.9148 92.7729 12.2598 93.6406 12.2598C94.7829 12.2598 94.9364 13.3946 94.9364 14.1996V16.4416C94.9364 16.6791 94.9271 17.0067 95.4087 17.0828L95.6925 17.1058V17.2673H93.287V17.1058C93.8384 17.0389 94.0128 17.0159 94.0128 16.3216V14.0243C94.0128 13.4684 94.0035 12.8272 93.2126 12.8272C92.61 12.8272 92.2355 13.1201 91.9935 13.4892V16.2317C91.9935 17.0597 92.3332 17.092 92.7845 17.1035V17.265H90.3255V17.1035C90.8187 17.0689 91.0723 17.0366 91.0723 16.3308V13.9689C91.0723 13.2516 90.8839 12.8272 90.3139 12.8272C89.5555 12.8272 89.0507 13.413 89.0507 13.4684V16.5384C89.0507 17.0689 89.4136 17.092 89.7974 17.1035V17.265H87.3594V17.1035C87.7967 17.092 88.1294 17.0689 88.1294 16.3401" fill="#307371"/>
<path d="M100.982 16.8732C100.389 17.0255 99.9725 17.1777 99.4561 17.3622L99.4352 17.3415V16.4373L98.9629 16.9032C98.5348 17.3276 98.0091 17.3714 97.8113 17.3714C97.3623 17.3714 96.5039 17.1108 96.5039 15.9575V13.215C96.5039 12.5623 96.1526 12.5415 95.8223 12.5184V12.3662H97.4251V15.9137C97.4251 16.0659 97.5229 16.7417 98.2487 16.7417C98.579 16.7417 98.9094 16.5895 99.2048 16.3496C99.3025 16.2643 99.3816 16.1536 99.3816 15.7938V13.2381C99.3816 12.8021 99.3374 12.5738 98.5697 12.553V12.3685H100.305V16.1028C100.305 16.4949 100.326 16.7441 100.985 16.7233" fill="#307371"/>
<path d="M102.093 13.586C102.093 12.9033 101.886 12.8918 101.711 12.8918C101.558 12.8918 101.437 12.9148 101.393 12.9356V12.7511C101.886 12.6104 102.402 12.4466 102.907 12.2598L102.986 12.2828V13.1432C103.524 12.6427 103.94 12.2598 104.589 12.2598C105.094 12.2598 105.873 12.555 105.873 13.8928V16.3862C105.873 16.8982 106.006 17.062 106.543 17.1058V17.2673H104.259V17.1058C104.663 17.0712 104.95 17.0159 104.95 16.1901V13.9159C104.95 13.2539 104.754 12.8595 104.105 12.8595C103.777 12.8595 103.435 13.0786 103.019 13.4799V16.5407C103.019 16.8982 103.172 17.0712 103.742 17.1058V17.2673H101.416V17.1058C101.928 17.0712 102.093 16.9305 102.093 16.287" fill="#307371"/>
<path d="M108.11 9.83008C108.44 9.83008 108.68 10.0838 108.68 10.386C108.68 10.702 108.44 10.9418 108.11 10.9418C107.714 10.9418 107.561 10.5935 107.561 10.386C107.561 10.1784 107.726 9.83008 108.11 9.83008ZM106.881 17.1026C107.561 17.068 107.747 17.0035 107.747 16.1547V13.6313C107.747 12.9901 107.537 12.9762 107.363 12.9762C107.209 12.9762 107.065 12.9993 106.923 13.02V12.8563C107.493 12.6718 108.054 12.4665 108.626 12.2566L108.668 12.2912V16.157C108.668 16.8743 108.724 17.0611 109.48 17.105V17.2687H106.879" fill="#307371"/>
<path d="M112.557 12.7162H111.447V15.8301C111.447 16.1668 111.447 16.8081 112.008 16.8081C112.359 16.8081 112.557 16.5705 112.678 16.4275L112.82 16.5474C112.557 17.0133 112.04 17.3732 111.535 17.3732C110.975 17.3732 110.526 17.0802 110.526 15.9892V12.7139H109.944C109.923 12.7024 109.902 12.6701 109.902 12.6355C109.902 12.5063 110.142 12.4394 110.384 12.2019C110.803 11.7775 110.965 11.5376 111.373 10.9609C111.447 10.9609 111.447 11.0163 111.447 11.1016V12.3656H112.557" fill="#307371"/>
<path d="M118.022 12.5303C117.881 12.5534 117.66 12.5742 117.497 13.0193L115.805 17.4617C115.247 18.9195 114.763 19.6368 113.94 19.6368C113.391 19.6368 113.139 19.2885 113.139 19.0048C113.139 18.9402 113.16 18.5251 113.665 18.5251C113.961 18.5251 114.303 18.7211 114.444 18.7211C115.014 18.7211 115.454 17.2196 115.454 17.0443C115.454 16.8828 114.928 15.8794 114.775 15.5427L113.523 12.8648C113.393 12.5926 113.107 12.5396 112.965 12.5165V12.3643H115.224V12.5257C114.975 12.5372 114.589 12.5488 114.589 12.8417C114.589 12.9824 114.663 13.1577 114.696 13.2338L115.959 15.9879L116.815 13.5729C116.924 13.2777 117.066 12.9294 117.066 12.8325C117.066 12.6272 116.892 12.5165 116.538 12.528V12.3666H118.02" fill="#307371"/>
<path d="M66.0371 28.1342C66.9584 28.0904 67.0026 27.8505 67.0026 27.034V22.3217C67.0026 21.5167 66.849 21.406 66.0371 21.3414V21.1338H69.087V21.3414C68.2542 21.406 68.1216 21.5467 68.1216 22.3217V24.4345H71.446V22.3217C71.446 21.5167 71.2947 21.406 70.4805 21.3414V21.1338H73.5327V21.3414C72.6976 21.406 72.5673 21.5467 72.5673 22.3217V27.1539C72.5673 27.8712 72.6766 28.0811 73.5327 28.1342V28.3418H70.4805V28.1342C71.4041 28.0904 71.446 27.8505 71.446 27.034V24.9119H68.1216V27.1539C68.1216 27.8712 68.2309 28.0811 69.087 28.1342V28.3418H66.0371" fill="#307371"/>
<path d="M77.0811 24.9818C77.0067 24.4583 76.895 23.7294 76.0273 23.7294C75.4248 23.7294 74.9967 24.0223 74.8199 24.9818H77.0811ZM78.4118 26.6356C78.3025 26.9724 77.6651 28.4532 76.0831 28.4532C74.8641 28.4532 74.0312 27.5606 74.0312 26.0129C74.0312 23.9992 75.3922 23.335 76.2716 23.335C77.3021 23.335 78.0815 23.9024 78.2048 25.3301H74.7896C74.9223 27.2561 75.8109 27.7036 76.5368 27.7036C77.5115 27.7036 77.9861 26.9632 78.2397 26.5595" fill="#307371"/>
<path d="M81.7799 25.4243C80.1235 25.9687 80.0026 26.5776 80.0026 26.949V26.972C80.0026 27.4818 80.3189 27.8209 80.7261 27.8209C80.9657 27.8209 81.3077 27.6802 81.4054 27.6225C81.745 27.4587 81.7776 27.3296 81.7776 27.002V25.4243H81.7799ZM83.4852 27.9062C83.0222 28.4413 82.6826 28.4505 82.5081 28.4505C82.3103 28.4505 81.8497 28.4413 81.7939 27.6571C81.3868 28.0169 80.8052 28.4505 80.2003 28.4505C79.6071 28.4505 79.0371 28.0492 79.0371 27.3203C79.0371 26.2316 79.9933 25.8603 81.7799 25.1637V24.5017C81.7799 23.7175 81.2658 23.5976 80.9354 23.5976C80.5748 23.5976 80.1561 23.7913 80.1561 24.1327C80.1561 24.2941 80.2119 24.4579 80.2119 24.5571C80.2119 24.7854 80.0026 25.023 79.7164 25.023C79.3768 25.023 79.2465 24.7208 79.2465 24.5455C79.2465 24.1119 79.7629 23.3369 81.0355 23.3369C82.6709 23.3369 82.6709 24.4256 82.6709 25.0784V27.2027C82.6709 27.5187 82.6709 27.8347 82.9896 27.8347C83.2176 27.8347 83.3619 27.7263 83.4828 27.6271" fill="#307371"/>
<path d="M83.7322 28.1778C84.3813 28.134 84.5767 27.9933 84.5767 27.3936V22.2016C84.5767 21.7149 84.5116 21.5373 84.0835 21.5373C83.9393 21.5373 83.8416 21.5465 83.709 21.558V21.3827C84.2906 21.242 84.8722 21.0898 85.4538 20.9053L85.498 20.926V27.4259C85.498 28.0556 85.6864 28.1456 86.3215 28.1778V28.3416H83.7299" fill="#307371"/>
<path d="M89.3563 23.7891H88.2466V26.903C88.2466 27.2397 88.2466 27.8809 88.805 27.8809C89.1563 27.8809 89.3563 27.6434 89.475 27.4981L89.6169 27.618C89.354 28.0862 88.8375 28.4437 88.3327 28.4437C87.7744 28.4437 87.3231 28.1531 87.3231 27.0621V23.7891H86.7415C86.7205 23.7799 86.6973 23.7476 86.6973 23.713C86.6973 23.5838 86.9415 23.5169 87.1788 23.2794C87.5953 22.855 87.7627 22.6151 88.1675 22.0361C88.2466 22.0361 88.2466 22.0915 88.2466 22.1768V23.4408H89.3563" fill="#307371"/>
<path d="M94.9554 28.3416H92.6266V28.1778C93.164 28.1225 93.3711 28.0694 93.3711 27.2298V25.0755C93.3711 24.3443 93.1315 23.9199 92.5289 23.9199C92.2079 23.9199 91.7798 24.0837 91.3309 24.605V27.2298C91.3309 28.0671 91.5379 28.1225 92.0776 28.1778V28.3416H89.707V28.1778C90.2979 28.1017 90.4096 28.0256 90.4096 27.2298V22.1024C90.4096 21.7772 90.4096 21.5465 89.928 21.5465C89.8606 21.5465 89.7512 21.5465 89.7187 21.558V21.3827C90.2119 21.242 90.7493 21.0898 91.2773 20.9053L91.3332 20.9376V24.2267H91.3541C91.738 23.6824 92.2777 23.3318 92.9361 23.3318C94.2854 23.3318 94.297 24.6281 94.297 25.0617V27.2298C94.297 28.0233 94.4063 28.081 94.953 28.1778" fill="#307371"/>
<path d="M102.995 23.3032H102.72C102.532 22.4082 101.829 21.4279 100.678 21.4279C100.129 21.4279 99.5679 21.7647 99.5679 22.4405C99.5679 24.0736 103.234 24.2904 103.234 26.5231C103.234 27.4457 102.485 28.4929 100.917 28.4929C100.082 28.4929 99.5447 28.1239 99.2143 28.1239C98.984 28.1239 98.8723 28.3107 98.8723 28.4837H98.6327L98.3047 26.1748H98.5559C98.7653 26.6869 99.3236 28.1031 100.808 28.1031C101.685 28.1031 102.125 27.4826 102.125 26.8945C102.125 26.274 101.948 25.905 100.333 24.9685C99.3213 24.3896 98.6211 23.9121 98.6211 22.8326C98.6211 21.5917 99.6191 20.9805 100.608 20.9805C101.266 20.9805 101.862 21.3495 102.136 21.3495C102.441 21.3495 102.499 21.1004 102.52 20.9805H102.75" fill="#307371"/>
<path d="M109.163 23.6054C109.024 23.6285 108.803 23.6493 108.638 24.0944L106.946 28.5392C106.386 29.9969 105.904 30.7189 105.081 30.7189C104.532 30.7189 104.28 30.3683 104.28 30.0869C104.28 30.0223 104.299 29.6071 104.806 29.6071C105.099 29.6071 105.441 29.8032 105.585 29.8032C106.155 29.8032 106.595 28.2993 106.595 28.1263C106.595 27.9648 106.069 26.9615 105.913 26.6247L104.664 23.9468C104.532 23.6746 104.245 23.6193 104.104 23.5985V23.4463H106.365V23.6077C106.114 23.6193 105.727 23.6308 105.727 23.9237C105.727 24.0668 105.804 24.2421 105.834 24.3182L107.1 27.0722L107.956 24.6549C108.065 24.362 108.207 24.0137 108.207 23.9145C108.207 23.7092 108.033 23.5985 107.682 23.6101V23.4486H109.163" fill="#307371"/>
<path d="M112.734 24.9265C112.494 23.8147 112.001 23.5864 111.517 23.5864C110.912 23.5864 110.682 24.0108 110.682 24.2945C110.682 24.5136 110.749 24.8296 111.157 25.0672L112.341 25.7638C112.88 26.0913 113.264 26.3958 113.264 27.0485C113.264 27.9942 112.373 28.4532 111.671 28.4532C111.178 28.4532 110.703 28.2479 110.398 28.2572C110.266 28.2572 110.221 28.2894 110.154 28.3886H110.014V26.6887H110.189C110.319 27.2653 110.528 28.2133 111.603 28.2133C111.975 28.2133 112.492 28.038 112.492 27.4199C112.492 27.0716 112.271 26.8086 111.92 26.6149L111.282 26.2528C110.603 25.8722 109.998 25.4685 109.998 24.6635C109.998 24.0546 110.47 23.335 111.536 23.335C112.02 23.335 112.359 23.5541 112.545 23.5541C112.643 23.5541 112.699 23.478 112.732 23.4341H112.853L112.897 24.9265" fill="#307371"/>
<path d="M116.512 23.7891H115.405V26.903C115.405 27.2397 115.405 27.8809 115.963 27.8809C116.314 27.8809 116.515 27.6434 116.633 27.4981L116.775 27.618C116.515 28.0862 115.996 28.4437 115.491 28.4437C114.933 28.4437 114.481 28.1531 114.481 27.0621V23.7891H113.9C113.879 23.7799 113.855 23.7476 113.855 23.713C113.855 23.5838 114.1 23.5169 114.337 23.2794C114.756 22.855 114.919 22.6151 115.326 22.0361C115.405 22.0361 115.405 22.0915 115.405 22.1768V23.4408H116.512" fill="#307371"/>
<path d="M120.087 24.9818C120.011 24.4583 119.901 23.7294 119.034 23.7294C118.431 23.7294 118.001 24.0223 117.824 24.9818H120.087ZM121.416 26.6356C121.306 26.9724 120.671 28.4532 119.087 28.4532C117.868 28.4532 117.035 27.5606 117.035 26.0129C117.035 23.9992 118.394 23.335 119.273 23.335C120.304 23.335 121.085 23.9024 121.206 25.3301H117.791C117.922 27.2561 118.813 27.7036 119.536 27.7036C120.513 27.7036 120.985 26.9632 121.237 26.5595" fill="#307371"/>
<path d="M122.583 24.6635C122.583 23.9785 122.373 23.9693 122.199 23.9693C122.043 23.9693 121.931 23.99 121.845 24.0108V23.8263C122.362 23.6856 122.878 23.5218 123.383 23.335L123.46 23.358V24.1745C124.109 23.6833 124.558 23.335 125.151 23.335C125.863 23.335 126.205 23.7917 126.326 24.2507C126.558 23.99 127.226 23.335 128.094 23.335C129.236 23.335 129.39 24.4675 129.39 25.2748V27.5167C129.39 27.7566 129.38 28.0842 129.862 28.1603L130.148 28.1833V28.3448H127.742V28.1833C128.289 28.1165 128.468 28.0957 128.468 27.3991V25.0995C128.468 24.5436 128.457 23.9024 127.668 23.9024C127.063 23.9024 126.691 24.1953 126.449 24.5667V27.3092C126.449 28.1372 126.791 28.1695 127.238 28.181V28.3425H124.779V28.181C125.27 28.1464 125.523 28.1141 125.523 27.4037V25.0441C125.523 24.3268 125.337 23.9024 124.767 23.9024C124.009 23.9024 123.504 24.4929 123.504 24.5436V27.6136C123.504 28.1487 123.864 28.1695 124.251 28.1833V28.3448H121.812V28.1833C122.25 28.1695 122.58 28.1487 122.58 27.4199" fill="#307371"/>
<path d="M133.472 24.9265C133.23 23.8147 132.734 23.5864 132.253 23.5864C131.65 23.5864 131.418 24.0108 131.418 24.2945C131.418 24.5136 131.485 24.8296 131.89 25.0672L133.076 25.7638C133.614 26.0913 133.998 26.3958 133.998 27.0485C133.998 27.9942 133.111 28.4532 132.404 28.4532C131.913 28.4532 131.439 28.2479 131.134 28.2572C131.001 28.2572 130.959 28.2894 130.892 28.3886H130.75V26.6887H130.924C131.055 27.2653 131.264 28.2133 132.341 28.2133C132.713 28.2133 133.23 28.038 133.23 27.4199C133.23 27.0716 133.011 26.8086 132.66 26.6149L132.022 26.2528C131.343 25.8722 130.738 25.4685 130.738 24.6635C130.738 24.0546 131.208 23.335 132.276 23.335C132.758 23.335 133.1 23.5541 133.286 23.5541C133.383 23.5541 133.442 23.478 133.474 23.4341H133.595L133.639 24.9265" fill="#307371"/>
<path d="M17.0795 26.4841H16.5352V26.2881H17.8612V26.4841H17.3122V28.0641H17.0795" fill="#307371"/>
<path d="M19.5665 27.2865C19.5525 27.0397 19.5386 26.7375 19.5386 26.5184H19.5316C19.4688 26.7237 19.3967 26.9474 19.3059 27.1942L18.9895 28.0546H18.8151L18.5219 27.208C18.4382 26.9566 18.3684 26.7283 18.3172 26.5184H18.3126C18.3079 26.7398 18.294 27.0351 18.2777 27.3049L18.2288 28.0661H18.0078L18.1334 26.29H18.4289L18.7336 27.1504C18.8081 27.3695 18.8662 27.5633 18.9151 27.7478H18.9198C18.9686 27.5679 19.0314 27.3741 19.1128 27.1504L19.4316 26.29H19.727L19.8387 28.0661H19.6107" fill="#307371"/>
</g>
<defs>
<clipPath id="clip0_5573_55902">
<rect width="134" height="21.7147" fill="white" transform="translate(0 9)"/>
</clipPath>
</defs>
</svg>
